<svg width="404" height="42" viewBox="0 0 404 42" fill="none" xmlns="http://www.w3.org/2000/svg">
<path d="M18.2661 32.9922L0.483972 21.5326L0.473295 16.8406L18.2031 5.30023L18.217 11.4182L6.04441 19.0819L6.04483 19.2659L18.2522 26.8742L18.2661 32.9922ZM25.7954 34.401L25.7271 4.40911L32.6731 4.3933L39.009 19.2829L41.6001 25.901L41.7841 25.9006C41.6271 24.3063 41.4237 22.5281 41.1739 20.566C40.9241 18.6039 40.7972 16.7488 40.7932 15.0009L40.7691 4.37488L47.255 4.36012L47.3233 34.352L40.3773 34.3678L34.0413 19.4322L31.4505 12.9061L31.2665 12.9065C31.4235 14.5315 31.6269 16.3097 31.8766 18.2412C32.1263 20.1419 32.2531 21.9816 32.2572 23.7603L32.2813 34.3863L25.7954 34.401ZM50.7553 34.3442L60.025 4.33106L68.121 4.31263L77.5273 34.2833L70.3513 34.2996L66.4527 19.1285C66.0813 17.6266 65.679 16.0329 65.2459 14.3472C64.8127 12.6615 64.4103 11.0371 64.0388 9.47394L63.8548 9.47436C63.4903 11.0392 63.1107 12.6654 62.7159 14.353C62.321 16.0405 61.926 17.6361 61.5307 19.1397L57.6553 34.3285L50.7553 34.3442ZM56.9031 27.2002L56.891 21.9102L71.243 21.8776L71.255 27.1676L56.9031 27.2002ZM88.3193 34.2587L88.264 9.97081L79.294 9.99122L79.281 4.28724L104.029 4.23092L104.042 9.93491L95.072 9.95532L95.1272 34.2433L88.3193 34.2587ZM108.449 34.2129L108.381 4.22102L115.143 4.20563L115.169 15.7976L123.357 15.779L123.331 4.187L130.093 4.17161L130.161 34.1635L123.399 34.1789L123.371 21.667L115.183 21.6856L115.211 34.1976L108.449 34.2129ZM133.501 34.1559L142.771 4.14276L150.867 4.12433L160.273 34.095L153.097 34.1113L149.199 18.9402C148.827 17.4383 148.425 15.8446 147.992 14.1589C147.559 12.4732 147.156 10.8488 146.785 9.28564L146.601 9.28606C146.236 10.8509 145.857 12.4771 145.462 14.1647C145.067 15.8522 144.672 17.4478 144.277 18.9514L140.401 34.1402L133.501 34.1559ZM139.649 27.0119L139.637 21.7219L153.989 21.6893L154.001 26.9793L139.649 27.0119ZM163.705 34.0872L163.637 4.09527L170.583 4.07947L176.919 18.9691L179.51 25.5872L179.694 25.5868C179.537 23.9925 179.334 22.2143 179.084 20.2522C178.834 18.2901 178.707 16.435 178.703 14.687L178.679 4.06104L185.165 4.04628L185.233 34.0382L178.287 34.054L171.951 19.1184L169.36 12.5923L169.176 12.5927C169.333 14.2177 169.537 15.9959 169.786 17.9273C170.036 19.8281 170.163 21.6678 170.167 23.4465L170.191 34.0724L163.705 34.0872ZM191.672 41.3836L206.715 1.32924L212.373 1.31636L197.33 41.3707L191.672 41.3836ZM219.283 33.9607L219.215 3.9688L229.841 3.94462C232.018 3.93966 233.981 4.24186 235.731 4.85121C237.511 5.42983 238.924 6.42329 239.97 7.83158C241.046 9.2398 241.587 11.1552 241.593 13.5779C241.598 15.9086 241.066 17.8264 239.996 19.3315C238.926 20.8367 237.502 21.9592 235.725 22.6993C233.948 23.4087 232.002 23.7658 229.886 23.7706L226.022 23.7794L226.045 33.9453L219.283 33.9607ZM226.01 18.3974L229.46 18.3895C231.33 18.3853 232.709 17.9681 233.597 17.1381C234.515 16.308 234.972 15.1263 234.969 13.593C234.965 11.9983 234.487 10.8954 233.535 10.2842C232.614 9.64232 231.248 9.32343 229.439 9.32754L225.989 9.3354L226.01 18.3974ZM243.829 33.9049L253.099 3.89169L261.195 3.87327L270.601 33.8439L263.425 33.8603L259.526 18.6891C259.155 17.1873 258.753 15.5935 258.32 13.9078C257.886 12.2221 257.484 10.5977 257.112 9.03457L256.928 9.03499C256.564 10.5998 256.184 12.226 255.79 13.9136C255.395 15.6012 255 17.1967 254.604 18.7003L250.729 33.8892L243.829 33.9049ZM249.977 26.7609L249.965 21.4709L264.317 21.4382L264.329 26.7282L249.977 26.7609ZM274.217 33.8357L274.149 3.84379L284.775 3.81961C286.891 3.81479 288.823 4.10173 290.573 4.68041C292.322 5.22843 293.719 6.19126 294.765 7.56888C295.842 8.91577 296.383 10.7699 296.388 13.1312C296.393 15.4312 295.861 17.3031 294.791 18.7469C293.751 20.1906 292.358 21.2671 290.612 21.9764C288.866 22.655 286.934 22.9967 284.818 23.0016L280.954 23.0103L280.979 33.8203L274.217 33.8357ZM280.942 17.6284L284.254 17.6208C286.033 17.6168 287.381 17.2457 288.3 16.5076C289.249 15.7388 289.721 14.6184 289.718 13.1464C289.715 11.6744 289.237 10.6481 288.285 10.0676C287.364 9.48706 286.014 9.1988 284.235 9.20285L280.923 9.21038L280.942 17.6284ZM283.572 21.2564L288.254 16.8757L297.861 33.7819L290.271 33.7992L283.572 21.2564ZM301.707 33.7732L301.639 3.78123L308.493 3.76563L308.521 16.0476L308.659 16.0473L317.509 3.74511L325.007 3.72805L308.542 25.5696L308.561 33.7576L301.707 33.7732ZM318.405 33.7352L311.381 19.8131L315.371 14.514L325.903 33.7181L318.405 33.7352ZM330.393 33.7079L330.325 3.71595L350.197 3.67073L350.21 9.37471L337.146 9.40444L337.159 15.4304L348.245 15.4052L348.258 21.0632L337.172 21.0884L337.188 27.9884L350.712 27.9576L350.725 33.6616L330.393 33.7079ZM356.963 33.6474L356.895 3.65549L367.521 3.6313C369.637 3.62649 371.569 3.91343 373.319 4.49211C375.068 5.04013 376.465 6.00296 377.511 7.38058C378.588 8.72747 379.128 10.5816 379.134 12.9429C379.139 15.2429 378.607 17.1148 377.537 18.5586C376.497 20.0023 375.104 21.0788 373.358 21.7881C371.611 22.4667 369.68 22.8084 367.564 22.8133L363.7 22.822L363.725 33.632L356.963 33.6474ZM363.688 17.4401L367 17.4325C368.779 17.4285 370.127 17.0574 371.045 16.3193C371.994 15.5505 372.467 14.4301 372.464 12.9581C372.46 11.4861 371.983 10.4598 371.031 9.87933C370.11 9.29876 368.76 9.0105 366.981 9.01455L363.669 9.02208L363.688 17.4401ZM366.318 21.0681L371 16.6874L380.607 33.5936L373.017 33.6109L366.318 21.0681ZM385.83 32.1557L385.816 26.0377L397.988 18.374L397.988 18.19L385.78 10.5818L385.767 4.46379L403.549 15.9233L403.559 20.6153L385.83 32.1557Z" fill="white"/>
</svg>
