<svg width="89" height="32" viewBox="0 0 89 32" fill="none" xmlns="http://www.w3.org/2000/svg">
<g clip-path="url(#clip0_6_7)">
<path d="M21.745 31V1.008H28.691L34.993 15.912L37.569 22.536H37.753C37.5997 20.9413 37.4003 19.1627 37.155 17.2C36.9097 15.2373 36.787 13.382 36.787 11.634V1.008H43.273V31H36.327L30.025 16.05L27.449 9.518H27.265C27.4183 11.1433 27.6177 12.922 27.863 14.854C28.1083 16.7553 28.231 18.5953 28.231 20.374V31H21.745Z" fill="black"/>
<path d="M45.659 31V1.008H56.285C58.4623 1.008 60.425 1.31467 62.173 1.928C63.9517 2.51067 65.3623 3.50733 66.405 4.918C67.4783 6.32867 68.015 8.24533 68.015 10.668C68.015 12.9987 67.4783 14.9153 66.405 16.418C65.3317 17.9207 63.9057 19.04 62.127 19.776C60.3483 20.4813 58.401 20.834 56.285 20.834H52.421V31H45.659ZM52.421 15.452H55.871C57.7417 15.452 59.1217 15.038 60.011 14.21C60.931 13.382 61.391 12.2013 61.391 10.668C61.391 9.07333 60.9157 7.96933 59.965 7.356C59.045 6.712 57.6803 6.39 55.871 6.39H52.421V15.452Z" fill="black"/>
<path d="M70.717 30.574V24.456L82.907 16.82V16.636L70.717 9V2.882L88.473 14.382V19.074L70.717 30.574Z" fill="black"/>
<path d="M18.301 29.574L0.544985 18.074V13.382L18.301 1.882V8L6.11099 15.636V15.82L18.301 23.456V29.574Z" fill="black"/>
</g>
<defs>
<clipPath id="clip0_6_7">
<rect width="89" height="32" fill="white"/>
</clipPath>
</defs>
</svg>
