<svg width="126" height="126" viewBox="0 0 126 126" fill="none" xmlns="http://www.w3.org/2000/svg">
<circle cx="63" cy="63" r="63" fill="url(#paint0_radial_1_53)"/>
<path d="M60.1864 20.6035C61.1529 17.9917 64.8471 17.9917 65.8136 20.6035L76.0258 48.2017C76.3297 49.0229 76.9771 49.6703 77.7983 49.9742L105.396 60.1864C108.008 61.1529 108.008 64.8471 105.396 65.8136L77.7983 76.0258C76.9771 76.3297 76.3297 76.9771 76.0258 77.7983L65.8136 105.396C64.8471 108.008 61.1529 108.008 60.1864 105.396L49.9742 77.7983C49.6703 76.9771 49.0229 76.3297 48.2017 76.0258L20.6035 65.8136C17.9917 64.8471 17.9917 61.1529 20.6035 60.1864L48.2017 49.9742C49.0229 49.6703 49.6703 49.0229 49.9742 48.2017L60.1864 20.6035Z" fill="#D9D9D9"/>
<defs>
<radialGradient id="paint0_radial_1_53" cx="0" cy="0" r="1" gradientUnits="userSpaceOnUse" gradientTransform="translate(63 63) rotate(90) scale(63)">
<stop stop-color="#808080"/>
<stop offset="1" stop-color="#808080" stop-opacity="0.5"/>
</radialGradient>
</defs>
</svg>
