<svg width="126" height="126" viewBox="0 0 126 126" fill="none" xmlns="http://www.w3.org/2000/svg">
<circle cx="63" cy="63" r="63" fill="url(#paint0_radial_1_54)"/>
<path d="M60.1468 21.7811C61.0449 19.0172 64.9551 19.0172 65.8532 21.7812L73.5522 45.4762C73.9538 46.7123 75.1056 47.5491 76.4053 47.5491H101.32C104.226 47.5491 105.434 51.268 103.083 52.9762L82.9269 67.6205C81.8755 68.3845 81.4355 69.7386 81.8371 70.9746L89.5361 94.6697C90.4342 97.4336 87.2707 99.732 84.9196 98.0238L64.7634 83.3794C63.7119 82.6155 62.2881 82.6155 61.2366 83.3795L41.0804 98.0238C38.7293 99.732 35.5659 97.4336 36.4639 94.6697L44.1629 70.9746C44.5645 69.7386 44.1245 68.3845 43.0731 67.6205L22.9169 52.9762C20.5657 51.268 21.7741 47.5491 24.6802 47.5491H49.5947C50.8944 47.5491 52.0462 46.7123 52.4478 45.4762L60.1468 21.7811Z" fill="#D9D9D9"/>
<defs>
<radialGradient id="paint0_radial_1_54" cx="0" cy="0" r="1" gradientUnits="userSpaceOnUse" gradientTransform="translate(63 63) rotate(90) scale(63)">
<stop stop-color="#FFD700"/>
<stop offset="1" stop-color="#FFD700" stop-opacity="0.5"/>
</radialGradient>
</defs>
</svg>
