<svg width="200" height="200" viewBox="0 0 200 200" fill="none" xmlns="http://www.w3.org/2000/svg">
<rect width="200" height="200" fill="white"/>
<path d="M49.657 135.904C44.1577 135.904 39.261 134.962 34.967 133.079C30.673 131.196 27.283 128.634 24.797 125.395C22.311 122.08 20.9173 118.389 20.616 114.321H39.713C39.939 116.506 40.956 118.276 42.764 119.632C44.572 120.988 46.7943 121.666 49.431 121.666C51.8417 121.666 53.6873 121.214 54.968 120.31C56.324 119.331 57.002 118.088 57.002 116.581C57.002 114.773 56.0603 113.455 54.177 112.626C52.2937 111.722 49.2427 110.743 45.024 109.688C40.504 108.633 36.7373 107.541 33.724 106.411C30.7107 105.206 28.1117 103.36 25.927 100.874C23.7423 98.3127 22.65 94.885 22.65 90.591C22.65 86.975 23.6293 83.698 25.588 80.76C27.622 77.7467 30.56 75.3737 34.402 73.641C38.3193 71.9083 42.9523 71.042 48.301 71.042C56.211 71.042 62.426 73.0007 66.946 76.918C71.5413 80.8353 74.178 86.0333 74.856 92.512H57.002C56.7007 90.3273 55.7213 88.5947 54.064 87.314C52.482 86.0333 50.3727 85.393 47.736 85.393C45.476 85.393 43.7433 85.845 42.538 86.749C41.3327 87.5777 40.73 88.7453 40.73 90.252C40.73 92.06 41.6717 93.416 43.555 94.32C45.5137 95.224 48.527 96.128 52.595 97.032C57.2657 98.2373 61.07 99.4427 64.008 100.648C66.946 101.778 69.5073 103.661 71.692 106.298C73.952 108.859 75.1197 112.325 75.195 116.694C75.195 120.385 74.1403 123.7 72.031 126.638C69.997 129.501 67.0213 131.761 63.104 133.418C59.262 135.075 54.7797 135.904 49.657 135.904ZM125.55 135L106.34 108.558V135H87.0167V51.38H106.34V97.597L125.437 71.946H149.28L123.064 103.586L149.506 135H125.55Z" fill="#222222"/>
<path d="M165.909 135.904C162.519 135.904 159.732 134.925 157.547 132.966C155.438 130.932 154.383 128.446 154.383 125.508C154.383 122.495 155.438 119.971 157.547 117.937C159.732 115.903 162.519 114.886 165.909 114.886C169.224 114.886 171.936 115.903 174.045 117.937C176.23 119.971 177.322 122.495 177.322 125.508C177.322 128.446 176.23 130.932 174.045 132.966C171.936 134.925 169.224 135.904 165.909 135.904Z" fill="#FF9800"/>
</svg>
