<svg width="226" height="240" viewBox="0 0 226 240" fill="none" xmlns="http://www.w3.org/2000/svg">
<path d="M150.667 200V40H37.6667V190C37.6667 195.523 41.8827 200 47.0833 200H150.667ZM178.917 220H47.0833C31.4813 220 18.8333 206.569 18.8333 190V30C18.8333 24.4772 23.0494 20 28.25 20H160.083C165.284 20 169.5 24.4772 169.5 30V100H207.167V190C207.167 206.569 194.519 220 178.917 220ZM169.5 120V190C169.5 195.523 173.716 200 178.917 200C184.117 200 188.333 195.523 188.333 190V120H169.5ZM56.5 60H113V120H56.5V60ZM75.3333 80V100H94.1667V80H75.3333ZM56.5 130H131.833V150H56.5V130ZM56.5 160H131.833V180H56.5V160Z" fill="white"/>
</svg>
