<svg width="128" height="128" viewBox="0 0 128 128" fill="none" xmlns="http://www.w3.org/2000/svg">
<path d="M106.183 27.5063C98.6763 24.0278 90.6818 21.4647 82.26 20C81.2226 21.8308 80.002 24.3329 79.2087 26.3468C70.2987 25.0042 61.4497 25.0042 52.7229 26.3468C51.8685 24.3329 50.648 21.8308 49.6105 20C41.1888 21.4647 33.1942 24.0278 25.6879 27.5063C10.5531 50.3305 6.4643 72.6056 8.4782 94.5144C18.5477 102.021 28.251 106.537 37.8323 109.527C40.2123 106.293 42.2873 102.814 44.1181 99.2135C40.6395 97.9319 37.3441 96.2842 34.2317 94.3923C35.0861 93.7821 35.8794 93.1108 36.6728 92.5005C55.7742 101.41 76.4624 101.41 95.3198 92.5005C96.1132 93.1718 96.9065 93.7821 97.7609 94.3923C94.6485 96.2842 91.292 97.8709 87.8745 99.2135C89.7053 102.814 91.7803 106.293 94.1603 109.527C103.742 106.537 113.506 102.021 123.514 94.5144C125.894 69.0661 119.426 47.0351 106.305 27.5063H106.183ZM46.6812 81.0884C40.9447 81.0884 36.2456 75.779 36.2456 69.2491C36.2456 62.7192 40.8226 57.4099 46.6812 57.4099C52.5398 57.4099 57.1778 62.7192 57.1168 69.2491C57.1168 75.718 52.5398 81.0884 46.6812 81.0884ZM85.1893 81.0884C79.4528 81.0884 74.7537 75.779 74.7537 69.2491C74.7537 62.7192 79.3307 57.4099 85.1893 57.4099C91.0479 57.4099 95.686 62.7192 95.625 69.2491C95.625 75.718 91.0479 81.0884 85.1893 81.0884Z" fill="white"/>
</svg>
