<svg width="226" height="240" viewBox="0 0 226 240" fill="none" xmlns="http://www.w3.org/2000/svg">
<g clip-path="url(#clip0_5_3)">
<path d="M28.25 49.95C28.25 38.93 36.6591 30 47.0362 30H178.964C189.341 30 197.75 38.93 197.75 49.95V190.05C197.75 195.341 195.771 200.415 192.248 204.157C188.725 207.898 183.946 210 178.964 210H47.0362C42.0538 210 37.2755 207.898 33.7524 204.157C30.2293 200.415 28.25 195.341 28.25 190.05V49.95ZM47.0833 50V190H178.917V50H47.0833ZM75.0697 181.8C69.2783 179.136 63.7542 175.86 58.5811 172.02C64.5537 162.19 72.7528 154.108 82.4278 148.514C92.1027 142.92 102.944 139.993 113.961 140C136.561 140 156.496 152.07 168.37 170.47C163.296 174.456 157.857 177.89 152.136 180.72C147.775 174.3 142.039 169.073 135.401 165.47C128.764 161.868 121.415 159.993 113.961 160C97.8109 160 83.5447 168.64 75.0697 181.8ZM113 130C108.672 130 104.386 129.095 100.387 127.336C96.3887 125.577 92.7554 122.999 89.6949 119.749C86.6345 116.499 84.2068 112.64 82.5505 108.394C80.8942 104.148 80.0417 99.5963 80.0417 95C80.0417 90.4037 80.8942 85.8525 82.5505 81.6061C84.2068 77.3597 86.6345 73.5013 89.6949 70.2513C92.7554 67.0012 96.3887 64.4231 100.387 62.6642C104.386 60.9053 108.672 60 113 60C121.741 60 130.124 63.6875 136.305 70.2513C142.486 76.815 145.958 85.7174 145.958 95C145.958 104.283 142.486 113.185 136.305 119.749C130.124 126.313 121.741 130 113 130ZM113 110C116.746 110 120.339 108.42 122.988 105.607C125.637 102.794 127.125 98.9782 127.125 95C127.125 91.0218 125.637 87.2064 122.988 84.3934C120.339 81.5804 116.746 80 113 80C109.254 80 105.661 81.5804 103.012 84.3934C100.363 87.2064 98.875 91.0218 98.875 95C98.875 98.9782 100.363 102.794 103.012 105.607C105.661 108.42 109.254 110 113 110Z" fill="white"/>
</g>
<defs>
<clipPath id="clip0_5_3">
<rect width="226" height="240" fill="white"/>
</clipPath>
</defs>
</svg>
