<svg width="226" height="240" viewBox="0 0 226 240" fill="none" xmlns="http://www.w3.org/2000/svg">
<g clip-path="url(#clip0_5_6)">
<path d="M141.25 40H47.0833V200H178.917V80H141.25V40ZM28.25 29.92C28.25 24.44 32.4593 20 37.6573 20H150.667L197.75 70V209.93C197.759 211.243 197.524 212.545 197.058 213.762C196.593 214.979 195.907 216.087 195.039 217.022C194.17 217.957 193.137 218.701 191.998 219.212C190.859 219.723 189.636 219.991 188.399 220H37.6007C35.1277 219.982 32.7607 218.931 31.0111 217.075C29.2615 215.219 28.2697 212.706 28.25 210.08V29.92ZM166.27 120L132.973 155.36L119.658 141.21L139.63 120L119.667 98.79L132.973 84.64L166.27 120ZM59.7299 120L93.0367 84.64L106.352 98.79L86.3697 120L106.333 141.21L93.0272 155.36L59.7299 120Z" fill="white"/>
</g>
<defs>
<clipPath id="clip0_5_6">
<rect width="226" height="240" fill="white"/>
</clipPath>
</defs>
</svg>
