<svg width="128" height="128" viewBox="0 0 128 128" fill="none" xmlns="http://www.w3.org/2000/svg">
<path d="M125.357 34.1068C124.646 31.3652 123.219 28.8615 121.223 26.8517C119.228 24.8419 116.734 23.3979 113.997 22.6673C97.4063 20.7105 80.7055 19.8287 64 20.0274C47.2947 19.8287 30.594 20.7105 14.0026 22.6673C11.2661 23.3979 8.7725 24.8419 6.77676 26.8517C4.78094 28.8615 3.35454 31.3652 2.64313 34.1068C0.825704 44.2978 -0.0579315 54.6336 0.0032654 64.9851C-0.0609714 75.3901 0.822664 85.7792 2.64313 96.0235C3.39141 98.721 4.83422 101.174 6.82756 103.14C8.82082 105.105 11.2949 106.513 14.0026 107.223C30.594 109.18 47.2947 110.062 64 109.863C80.7055 110.062 97.4063 109.18 113.997 107.223C116.705 106.513 119.18 105.105 121.172 103.14C123.166 101.174 124.609 98.721 125.357 96.0235C127.178 85.7792 128.061 75.3901 127.997 64.9851C128.058 54.6336 127.174 44.2978 125.357 34.1068ZM50.8806 84.1041V46.0261L84.399 64.9851L50.8806 84.0241V84.1041Z" fill="white"/>
</svg>
