<svg width="226" height="240" viewBox="0 0 226 240" fill="none" xmlns="http://www.w3.org/2000/svg">
<g clip-path="url(#clip0_5_9)">
<path d="M56.5 70V40C56.5 37.3478 57.4921 34.8043 59.2581 32.9289C61.024 31.0536 63.4192 30 65.9167 30H126.315L145.148 50H197.75C200.247 50 202.643 51.0536 204.409 52.9289C206.175 54.8043 207.167 57.3478 207.167 60V160C207.167 162.652 206.175 165.196 204.409 167.071C202.643 168.946 200.247 170 197.75 170H169.5V200C169.5 202.652 168.508 205.196 166.742 207.071C164.976 208.946 162.581 210 160.083 210H28.25C25.7525 210 23.3574 208.946 21.5914 207.071C19.8254 205.196 18.8333 202.652 18.8333 200V80C18.8333 77.3478 19.8254 74.8043 21.5914 72.9289C23.3574 71.0536 25.7525 70 28.25 70H56.5ZM56.5 90H37.6667V190H150.667V170H56.5V90ZM75.3333 50V150H188.333V70H137.351L118.518 50H75.3333Z" fill="white"/>
</g>
<defs>
<clipPath id="clip0_5_9">
<rect width="226" height="240" fill="white"/>
</clipPath>
</defs>
</svg>
