<svg width="128" height="128" viewBox="0 0 128 128" fill="none" xmlns="http://www.w3.org/2000/svg">
<path d="M66.0004 20C40.5984 20 20 40.5946 20 66.0004C20 86.3245 33.1805 103.567 51.4579 109.65C53.7568 110.076 54.6008 108.652 54.6008 107.437C54.6008 106.34 54.5582 102.717 54.5384 98.8728C41.741 101.655 39.0406 93.4454 39.0406 93.4454C36.9481 88.1284 33.9331 86.7146 33.9331 86.7146C29.7595 83.8595 34.2477 83.9182 34.2477 83.9182C38.867 84.2427 41.2992 88.6585 41.2992 88.6585C45.402 95.691 52.0604 93.6579 54.6854 92.4825C55.0983 89.5094 56.2904 87.4801 57.6059 86.3314C47.3886 85.1682 36.648 81.2239 36.648 63.5978C36.648 58.5756 38.4449 54.4721 41.3876 51.2507C40.91 50.0921 39.3354 45.4134 41.8332 39.0772C41.8332 39.0772 45.696 37.8409 54.4866 43.7924C58.1559 42.7732 62.0911 42.2621 66.0004 42.2445C69.9097 42.2621 73.8479 42.7732 77.5241 43.7924C86.304 37.8409 90.1615 39.0772 90.1615 39.0772C92.6653 45.4134 91.09 50.0921 90.6124 51.2507C93.5619 54.4721 95.3467 58.5756 95.3467 63.5978C95.3467 81.2658 84.5855 85.156 74.3423 86.2948C75.9922 87.7224 77.4624 90.5218 77.4624 94.8135C77.4624 100.968 77.4091 105.922 77.4091 107.437C77.4091 108.661 78.2371 110.096 80.5688 109.644C98.8362 103.555 112 86.3177 112 66.0004C112 40.5946 91.4046 20 66.0004 20ZM37.2286 85.5285C37.1273 85.757 36.7678 85.8256 36.4402 85.6687C36.1066 85.5186 35.9192 85.2071 36.0274 84.9778C36.1264 84.7424 36.4867 84.6769 36.8196 84.8346C37.154 84.9846 37.3444 85.2992 37.2286 85.5285ZM39.4913 87.5475C39.272 87.7509 38.8431 87.6564 38.5521 87.335C38.2512 87.0143 38.1949 86.5854 38.4173 86.379C38.6435 86.1756 39.0594 86.2708 39.3611 86.5915C39.662 86.916 39.7206 87.3418 39.4913 87.5475ZM41.0436 90.1307C40.7618 90.3265 40.3009 90.1429 40.0161 89.7338C39.7342 89.3248 39.7342 88.8342 40.0221 88.6377C40.3078 88.4412 40.7618 88.6179 41.0505 89.0239C41.3316 89.4398 41.3316 89.9304 41.0436 90.1307ZM43.6689 93.1224C43.4168 93.4005 42.8798 93.3258 42.4867 92.9465C42.0845 92.5755 41.9725 92.0491 42.2254 91.7711C42.4806 91.4923 43.0207 91.5708 43.4168 91.9471C43.8159 92.3173 43.9378 92.8475 43.6689 93.1224ZM47.0618 94.1324C46.9506 94.4927 46.4334 94.6565 45.9124 94.5034C45.3921 94.3457 45.0516 93.9237 45.1567 93.5596C45.2649 93.197 45.7844 93.0264 46.3092 93.1901C46.8287 93.3471 47.17 93.766 47.0618 94.1324ZM50.9231 94.5608C50.9361 94.9402 50.4943 95.2548 49.9473 95.2616C49.3973 95.2738 48.9525 94.9668 48.9464 94.5936C48.9464 94.2104 49.3783 93.8989 49.9283 93.8897C50.4752 93.8791 50.9231 94.1838 50.9231 94.5608ZM54.7164 94.4154C54.7819 94.7856 54.4018 95.1657 53.8587 95.2671C53.3247 95.3646 52.8303 95.136 52.7625 94.7689C52.6962 94.3895 53.0832 94.0094 53.6164 93.9111C54.1603 93.8167 54.6471 94.0391 54.7164 94.4154Z" fill="white"/>
</svg>
